<svg xmlns="http://www.w3.org/2000/svg" width="1680" height="816" viewBox="0 0 1680 816"><defs><linearGradient id="bg" x1="0" y1="0" x2="1" y2="1"><stop stop-color="#110d12"/><stop offset="1" stop-color="#24100d"/></linearGradient><filter id="shadow" x="-20%" y="-20%" width="140%" height="140%"><feDropShadow dx="0" dy="12" stdDeviation="10" flood-color="#000" flood-opacity="0.45"/></filter></defs><rect width="100%" height="100%" fill="url(#bg)"/><text x="48" y="56" fill="#ffe8a2" font-size="34" font-weight="900" font-family="Noto Sans TC, sans-serif">Land Craft 地形卡牌預覽</text><g filter="url(#shadow)"><rect x="36" y="96" width="210" height="310" rx="18" fill="#21191b" stroke="#47d77a" stroke-width="6"/><rect x="48" y="108" width="186" height="286" rx="12" fill="#111" stroke="rgba(255,255,255,.12)"/><rect x="56" y="144" width="170" height="182" rx="16" fill="#1b1719" stroke="rgba(255,255,255,.08)"/><circle cx="141" cy="236" r="58" fill="#47d77a" opacity=".22"/><text x="141" y="250" fill="#fff5dc" font-size="46" font-weight="900" text-anchor="middle" font-family="Noto Sans TC, sans-serif">🎋</text><text x="141" y="130" fill="#fff2c4" font-size="18" font-weight="900" text-anchor="middle" font-family="Noto Sans TC, sans-serif">林中柵欄</text><rect x="56" y="338" width="170" height="28" rx="14" fill="#47d77a" opacity=".9"/><text x="141" y="358" fill="#101010" font-size="16" font-weight="900" text-anchor="middle" font-family="Noto Sans TC, sans-serif">稀有</text><text x="141" y="388" fill="#d8b98c" font-size="13" text-anchor="middle" font-family="Noto Sans TC, sans-serif">竹林柵欄</text></g><g filter="url(#shadow)"><rect x="270" y="96" width="210" height="310" rx="18" fill="#21191b" stroke="#47d77a" stroke-width="6"/><rect x="282" y="108" width="186" height="286" rx="12" fill="#111" stroke="rgba(255,255,255,.12)"/><rect x="290" y="144" width="170" height="182" rx="16" fill="#1b1719" stroke="rgba(255,255,255,.08)"/><circle cx="375" cy="236" r="58" fill="#47d77a" opacity=".22"/><text x="375" y="250" fill="#fff5dc" font-size="46" font-weight="900" text-anchor="middle" font-family="Noto Sans TC, sans-serif">⛩</text><text x="375" y="130" fill="#fff2c4" font-size="18" font-weight="900" text-anchor="middle" font-family="Noto Sans TC, sans-serif">天堂寺</text><rect x="290" y="338" width="170" height="28" rx="14" fill="#47d77a" opacity=".9"/><text x="375" y="358" fill="#101010" font-size="16" font-weight="900" text-anchor="middle" font-family="Noto Sans TC, sans-serif">稀有</text><text x="375" y="388" fill="#d8b98c" font-size="13" text-anchor="middle" font-family="Noto Sans TC, sans-serif">雲上寺廟</text></g><g filter="url(#shadow)"><rect x="504" y="96" width="210" height="310" rx="18" fill="#21191b" stroke="#47d77a" stroke-width="6"/><rect x="516" y="108" width="186" height="286" rx="12" fill="#111" stroke="rgba(255,255,255,.12)"/><rect x="524" y="144" width="170" height="182" rx="16" fill="#1b1719" stroke="rgba(255,255,255,.08)"/><circle cx="609" cy="236" r="58" fill="#47d77a" opacity=".22"/><text x="609" y="250" fill="#fff5dc" font-size="46" font-weight="900" text-anchor="middle" font-family="Noto Sans TC, sans-serif">🛡</text><text x="609" y="130" fill="#fff2c4" font-size="18" font-weight="900" text-anchor="middle" font-family="Noto Sans TC, sans-serif">防護罩</text><rect x="524" y="338" width="170" height="28" rx="14" fill="#47d77a" opacity=".9"/><text x="609" y="358" fill="#101010" font-size="16" font-weight="900" text-anchor="middle" font-family="Noto Sans TC, sans-serif">稀有</text><text x="609" y="388" fill="#d8b98c" font-size="13" text-anchor="middle" font-family="Noto Sans TC, sans-serif">Land Craft 防護罩</text></g><g filter="url(#shadow)"><rect x="738" y="96" width="210" height="310" rx="18" fill="#21191b" stroke="#47d77a" stroke-width="6"/><rect x="750" y="108" width="186" height="286" rx="12" fill="#111" stroke="rgba(255,255,255,.12)"/><rect x="758" y="144" width="170" height="182" rx="16" fill="#1b1719" stroke="rgba(255,255,255,.08)"/><circle cx="843" cy="236" r="58" fill="#47d77a" opacity=".22"/><text x="843" y="250" fill="#fff5dc" font-size="46" font-weight="900" text-anchor="middle" font-family="Noto Sans TC, sans-serif">塔</text><text x="843" y="130" fill="#fff2c4" font-size="18" font-weight="900" text-anchor="middle" font-family="Noto Sans TC, sans-serif">九層寶塔</text><rect x="758" y="338" width="170" height="28" rx="14" fill="#47d77a" opacity=".9"/><text x="843" y="358" fill="#101010" font-size="16" font-weight="900" text-anchor="middle" font-family="Noto Sans TC, sans-serif">稀有</text><text x="843" y="388" fill="#d8b98c" font-size="13" text-anchor="middle" font-family="Noto Sans TC, sans-serif">地底寶塔</text></g><g filter="url(#shadow)"><rect x="972" y="96" width="210" height="310" rx="18" fill="#21191b" stroke="#47d77a" stroke-width="6"/><rect x="984" y="108" width="186" height="286" rx="12" fill="#111" stroke="rgba(255,255,255,.12)"/><rect x="992" y="144" width="170" height="182" rx="16" fill="#1b1719" stroke="rgba(255,255,255,.08)"/><circle cx="1077" cy="236" r="58" fill="#47d77a" opacity=".22"/><text x="1077" y="250" fill="#fff5dc" font-size="46" font-weight="900" text-anchor="middle" font-family="Noto Sans TC, sans-serif">★</text><text x="1077" y="130" fill="#fff2c4" font-size="18" font-weight="900" text-anchor="middle" font-family="Noto Sans TC, sans-serif">Land Craft之星</text><rect x="992" y="338" width="170" height="28" rx="14" fill="#47d77a" opacity=".9"/><text x="1077" y="358" fill="#101010" font-size="16" font-weight="900" text-anchor="middle" font-family="Noto Sans TC, sans-serif">稀有</text><text x="1077" y="388" fill="#d8b98c" font-size="13" text-anchor="middle" font-family="Noto Sans TC, sans-serif">星形祝福</text></g><g filter="url(#shadow)"><rect x="1206" y="96" width="210" height="310" rx="18" fill="#21191b" stroke="#47d77a" stroke-width="6"/><rect x="1218" y="108" width="186" height="286" rx="12" fill="#111" stroke="rgba(255,255,255,.12)"/><rect x="1226" y="144" width="170" height="182" rx="16" fill="#1b1719" stroke="rgba(255,255,255,.08)"/><circle cx="1311" cy="236" r="58" fill="#47d77a" opacity=".22"/><text x="1311" y="250" fill="#fff5dc" font-size="46" font-weight="900" text-anchor="middle" font-family="Noto Sans TC, sans-serif">◎</text><text x="1311" y="130" fill="#fff2c4" font-size="18" font-weight="900" text-anchor="middle" font-family="Noto Sans TC, sans-serif">傳送門徽章</text><rect x="1226" y="338" width="170" height="28" rx="14" fill="#47d77a" opacity=".9"/><text x="1311" y="358" fill="#101010" font-size="16" font-weight="900" text-anchor="middle" font-family="Noto Sans TC, sans-serif">稀有</text><text x="1311" y="388" fill="#d8b98c" font-size="13" text-anchor="middle" font-family="Noto Sans TC, sans-serif">傳送門徽章</text></g><g filter="url(#shadow)"><rect x="1440" y="96" width="210" height="310" rx="18" fill="#21191b" stroke="#47d77a" stroke-width="6"/><rect x="1452" y="108" width="186" height="286" rx="12" fill="#111" stroke="rgba(255,255,255,.12)"/><rect x="1460" y="144" width="170" height="182" rx="16" fill="#1b1719" stroke="rgba(255,255,255,.08)"/><circle cx="1545" cy="236" r="58" fill="#47d77a" opacity=".22"/><text x="1545" y="250" fill="#fff5dc" font-size="46" font-weight="900" text-anchor="middle" font-family="Noto Sans TC, sans-serif">🥚</text><text x="1545" y="130" fill="#fff2c4" font-size="18" font-weight="900" text-anchor="middle" font-family="Noto Sans TC, sans-serif">花龍蛋</text><rect x="1460" y="338" width="170" height="28" rx="14" fill="#47d77a" opacity=".9"/><text x="1545" y="358" fill="#101010" font-size="16" font-weight="900" text-anchor="middle" font-family="Noto Sans TC, sans-serif">稀有</text><text x="1545" y="388" fill="#d8b98c" font-size="13" text-anchor="middle" font-family="Noto Sans TC, sans-serif">破裂花龍蛋</text></g><g filter="url(#shadow)"><rect x="36" y="430" width="210" height="310" rx="18" fill="#21191b" stroke="#4aa3ff" stroke-width="6"/><rect x="48" y="442" width="186" height="286" rx="12" fill="#111" stroke="rgba(255,255,255,.12)"/><rect x="56" y="478" width="170" height="182" rx="16" fill="#1b1719" stroke="rgba(255,255,255,.08)"/><circle cx="141" cy="570" r="58" fill="#4aa3ff" opacity=".22"/><text x="141" y="584" fill="#fff5dc" font-size="46" font-weight="900" text-anchor="middle" font-family="Noto Sans TC, sans-serif">LC</text><text x="141" y="464" fill="#fff2c4" font-size="18" font-weight="900" text-anchor="middle" font-family="Noto Sans TC, sans-serif">電競召喚卡牌</text><rect x="56" y="672" width="170" height="28" rx="14" fill="#4aa3ff" opacity=".9"/><text x="141" y="692" fill="#101010" font-size="16" font-weight="900" text-anchor="middle" font-family="Noto Sans TC, sans-serif">極稀有</text><text x="141" y="722" fill="#d8b98c" font-size="13" text-anchor="middle" font-family="Noto Sans TC, sans-serif">Land Craft 卡牌</text></g><g filter="url(#shadow)"><rect x="270" y="430" width="210" height="310" rx="18" fill="#21191b" stroke="#4aa3ff" stroke-width="6"/><rect x="282" y="442" width="186" height="286" rx="12" fill="#111" stroke="rgba(255,255,255,.12)"/><rect x="290" y="478" width="170" height="182" rx="16" fill="#1b1719" stroke="rgba(255,255,255,.08)"/><circle cx="375" cy="570" r="58" fill="#4aa3ff" opacity=".22"/><text x="375" y="584" fill="#fff5dc" font-size="46" font-weight="900" text-anchor="middle" font-family="Noto Sans TC, sans-serif">門</text><text x="375" y="464" fill="#fff2c4" font-size="18" font-weight="900" text-anchor="middle" font-family="Noto Sans TC, sans-serif">金球防宮之門</text><rect x="290" y="672" width="170" height="28" rx="14" fill="#4aa3ff" opacity=".9"/><text x="375" y="692" fill="#101010" font-size="16" font-weight="900" text-anchor="middle" font-family="Noto Sans TC, sans-serif">極稀有</text><text x="375" y="722" fill="#d8b98c" font-size="13" text-anchor="middle" font-family="Noto Sans TC, sans-serif">城堡大門</text></g><g filter="url(#shadow)"><rect x="504" y="430" width="210" height="310" rx="18" fill="#21191b" stroke="#4aa3ff" stroke-width="6"/><rect x="516" y="442" width="186" height="286" rx="12" fill="#111" stroke="rgba(255,255,255,.12)"/><rect x="524" y="478" width="170" height="182" rx="16" fill="#1b1719" stroke="rgba(255,255,255,.08)"/><circle cx="609" cy="570" r="58" fill="#4aa3ff" opacity=".22"/><text x="609" y="584" fill="#fff5dc" font-size="46" font-weight="900" text-anchor="middle" font-family="Noto Sans TC, sans-serif">火</text><text x="609" y="464" fill="#fff2c4" font-size="18" font-weight="900" text-anchor="middle" font-family="Noto Sans TC, sans-serif">火精靈</text><rect x="524" y="672" width="170" height="28" rx="14" fill="#4aa3ff" opacity=".9"/><text x="609" y="692" fill="#101010" font-size="16" font-weight="900" text-anchor="middle" font-family="Noto Sans TC, sans-serif">極稀有</text><text x="609" y="722" fill="#d8b98c" font-size="13" text-anchor="middle" font-family="Noto Sans TC, sans-serif">火元素</text></g><g filter="url(#shadow)"><rect x="738" y="430" width="210" height="310" rx="18" fill="#21191b" stroke="#a96cff" stroke-width="6"/><rect x="750" y="442" width="186" height="286" rx="12" fill="#111" stroke="rgba(255,255,255,.12)"/><rect x="758" y="478" width="170" height="182" rx="16" fill="#1b1719" stroke="rgba(255,255,255,.08)"/><circle cx="843" cy="570" r="58" fill="#a96cff" opacity=".22"/><text x="843" y="584" fill="#fff5dc" font-size="46" font-weight="900" text-anchor="middle" font-family="Noto Sans TC, sans-serif">◉</text><text x="843" y="464" fill="#fff2c4" font-size="18" font-weight="900" text-anchor="middle" font-family="Noto Sans TC, sans-serif">地獄黑洞</text><rect x="758" y="672" width="170" height="28" rx="14" fill="#a96cff" opacity=".9"/><text x="843" y="692" fill="#101010" font-size="16" font-weight="900" text-anchor="middle" font-family="Noto Sans TC, sans-serif">超稀有</text><text x="843" y="722" fill="#d8b98c" font-size="13" text-anchor="middle" font-family="Noto Sans TC, sans-serif">混色黑洞</text></g><g filter="url(#shadow)"><rect x="972" y="430" width="210" height="310" rx="18" fill="#21191b" stroke="#a96cff" stroke-width="6"/><rect x="984" y="442" width="186" height="286" rx="12" fill="#111" stroke="rgba(255,255,255,.12)"/><rect x="992" y="478" width="170" height="182" rx="16" fill="#1b1719" stroke="rgba(255,255,255,.08)"/><circle cx="1077" cy="570" r="58" fill="#a96cff" opacity=".22"/><text x="1077" y="584" fill="#fff5dc" font-size="46" font-weight="900" text-anchor="middle" font-family="Noto Sans TC, sans-serif">☄</text><text x="1077" y="464" fill="#fff2c4" font-size="18" font-weight="900" text-anchor="middle" font-family="Noto Sans TC, sans-serif">星空落雨</text><rect x="992" y="672" width="170" height="28" rx="14" fill="#a96cff" opacity=".9"/><text x="1077" y="692" fill="#101010" font-size="16" font-weight="900" text-anchor="middle" font-family="Noto Sans TC, sans-serif">超稀有</text><text x="1077" y="722" fill="#d8b98c" font-size="13" text-anchor="middle" font-family="Noto Sans TC, sans-serif">流星雨</text></g><g filter="url(#shadow)"><rect x="1206" y="430" width="210" height="310" rx="18" fill="#21191b" stroke="#a96cff" stroke-width="6"/><rect x="1218" y="442" width="186" height="286" rx="12" fill="#111" stroke="rgba(255,255,255,.12)"/><rect x="1226" y="478" width="170" height="182" rx="16" fill="#1b1719" stroke="rgba(255,255,255,.08)"/><circle cx="1311" cy="570" r="58" fill="#a96cff" opacity=".22"/><text x="1311" y="584" fill="#fff5dc" font-size="46" font-weight="900" text-anchor="middle" font-family="Noto Sans TC, sans-serif">劍</text><text x="1311" y="464" fill="#fff2c4" font-size="18" font-weight="900" text-anchor="middle" font-family="Noto Sans TC, sans-serif">水之神召喚石</text><rect x="1226" y="672" width="170" height="28" rx="14" fill="#a96cff" opacity=".9"/><text x="1311" y="692" fill="#101010" font-size="16" font-weight="900" text-anchor="middle" font-family="Noto Sans TC, sans-serif">超稀有</text><text x="1311" y="722" fill="#d8b98c" font-size="13" text-anchor="middle" font-family="Noto Sans TC, sans-serif">水池之劍</text></g><g filter="url(#shadow)"><rect x="1440" y="430" width="210" height="310" rx="18" fill="#21191b" stroke="#ff4f5f" stroke-width="6"/><rect x="1452" y="442" width="186" height="286" rx="12" fill="#111" stroke="rgba(255,255,255,.12)"/><rect x="1460" y="478" width="170" height="182" rx="16" fill="#1b1719" stroke="rgba(255,255,255,.08)"/><circle cx="1545" cy="570" r="58" fill="#ff4f5f" opacity=".22"/><text x="1545" y="584" fill="#fff5dc" font-size="46" font-weight="900" text-anchor="middle" font-family="Noto Sans TC, sans-serif">◆</text><text x="1545" y="464" fill="#fff2c4" font-size="18" font-weight="900" text-anchor="middle" font-family="Noto Sans TC, sans-serif">水晶龍門盾</text><rect x="1460" y="672" width="170" height="28" rx="14" fill="#ff4f5f" opacity=".9"/><text x="1545" y="692" fill="#101010" font-size="16" font-weight="900" text-anchor="middle" font-family="Noto Sans TC, sans-serif">最稀有</text><text x="1545" y="722" fill="#d8b98c" font-size="13" text-anchor="middle" font-family="Noto Sans TC, sans-serif">水晶盾牌</text></g></svg>